<svg width="76" height="76" viewBox="0 0 76 76" fill="none" xmlns="http://www.w3.org/2000/svg">
<path d="M37.7021 0H37.702C16.8798 0 0 16.8798 0 37.702V37.7021C0 58.5243 16.8798 75.4041 37.702 75.4041H37.7021C58.5243 75.4041 75.4041 58.5243 75.4041 37.7021V37.702C75.4041 16.8798 58.5243 0 37.7021 0Z" fill="#F0F7E2"/>
<path d="M38.0169 33.2129L36.7589 35.7618L33.9449 36.1706L35.9809 38.1548L35.4999 40.9566L38.0169 39.634L40.5329 40.9568L40.0519 38.1549L42.0879 36.1708L39.2749 35.7618L38.0169 33.2129ZM26.1859 36.7345L24.9279 39.2837L22.1149 39.6925L24.1509 41.6766L23.6699 44.4786L26.1859 43.1556L28.7029 44.4786L28.2219 41.6766L30.2579 39.6925L27.4439 39.2837L26.1859 36.7345ZM49.8469 36.7345L48.5889 39.2837L45.7749 39.6925L47.8109 41.6766L47.3309 44.4786L49.8469 43.1556L52.3629 44.4786L51.8819 41.6766L53.9179 39.6925L51.1049 39.2837L49.8469 36.7345ZM17.2239 45.7542L15.9659 48.3031L13.1519 48.7119L15.1879 50.696L14.7079 53.4979L17.2239 52.1752L19.7399 53.4979L19.2589 50.696L21.2949 48.712L18.4819 48.3031L17.2239 45.7542ZM58.8099 45.7542L57.5509 48.3031L54.7379 48.7119L56.7739 50.696L56.2929 53.4979L58.8099 52.1752L61.3249 53.4979L60.8449 50.696L62.8809 48.7119L60.0669 48.3029L58.8089 45.7539L58.8099 45.7542Z" fill="#93C926" fill-opacity="0.5"/>
<path d="M38.959 49.6387C52.2929 49.6387 64.0618 51.8547 71.085 55.2324C64.8414 67.0976 52.4614 75.2261 38.1631 75.3975C37.4509 75.3927 36.7434 75.3824 36.041 75.3652C22.6698 74.7855 11.1065 67.2433 4.88477 56.2715C11.5348 52.316 24.3014 49.6387 38.959 49.6387Z" fill="#5D770D"/>
<path d="M41.3359 54.0391V58.0684C41.3799 58.0246 41.4519 57.9808 41.5389 57.923C41.6409 57.8513 41.8439 57.7637 42.1489 57.6621C42.4529 57.5605 42.7859 57.5027 43.1209 57.5027C44.0189 57.5027 44.7739 57.8075 45.3809 58.4309C45.9909 59.0404 46.2939 59.7793 46.2939 60.6637C46.2939 61.548 45.9889 62.273 45.3649 62.8965C44.7559 63.5199 44.0029 63.8246 43.1189 63.8246C42.2339 63.8246 41.5089 63.5338 40.8859 62.9702C40.2619 62.4045 39.9439 61.6217 39.9439 60.6219V54.0391H41.3359ZM43.1189 58.8372C42.1189 58.8372 41.3359 59.6061 41.3359 60.6637C41.3359 61.7213 42.0889 62.4901 43.1189 62.4901C44.1479 62.4901 44.9009 61.7074 44.9009 60.6637C44.9009 59.62 44.1189 58.8372 43.1189 58.8372Z" fill="#FCFDFC"/>
<path d="M33.5719 58.4321C34.1949 57.8086 34.9339 57.5039 35.8189 57.5039C36.7029 57.5039 37.4279 57.8086 38.0519 58.4321C38.6749 59.0555 38.9799 59.7944 38.9799 60.6648C38.9799 61.5352 38.6749 62.2881 38.0519 62.9116C37.4279 63.521 36.6889 63.8258 35.8189 63.8258C34.9479 63.8258 34.1949 63.521 33.5719 62.9116C32.9489 62.2881 32.6439 61.5492 32.6439 60.6648C32.6439 59.7805 32.9489 59.0555 33.5719 58.4321ZM34.0359 60.6648C34.0359 61.2006 34.2089 61.6368 34.5439 61.9834C34.8929 62.316 35.3129 62.4913 35.8189 62.4913C36.3249 62.4913 36.7469 62.318 37.0799 61.9834C37.4279 61.6348 37.6009 61.2006 37.6009 60.6648C37.6009 60.1291 37.4279 59.6929 37.0799 59.3602C36.7469 59.0117 36.3269 58.8384 35.8189 58.8384C35.3109 58.8384 34.8909 59.0117 34.5439 59.3602C34.2109 59.6929 34.0359 60.1291 34.0359 60.6648Z" fill="#FCFDFC"/>
<path d="M48.1839 58.4321C48.8079 57.8086 49.5459 57.5039 50.4309 57.5039C51.3149 57.5039 52.0399 57.8086 52.6639 58.4321C53.2869 59.0555 53.5919 59.7944 53.5919 60.6648C53.5919 61.5352 53.2869 62.2881 52.6639 62.9116C52.0399 63.521 51.3009 63.8258 50.4309 63.8258C49.5599 63.8258 48.8079 63.521 48.1839 62.9116C47.5609 62.2881 47.2559 61.5492 47.2559 60.6648C47.2559 59.7805 47.5609 59.0555 48.1839 58.4321ZM48.6479 60.6648C48.6479 61.2006 48.8209 61.6368 49.1559 61.9834C49.5049 62.316 49.9249 62.4913 50.4309 62.4913C50.9369 62.4913 51.3589 62.318 51.6919 61.9834C52.0399 61.6348 52.2129 61.2006 52.2129 60.6648C52.2129 60.1291 52.0399 59.6929 51.6919 59.3602C51.3589 59.0117 50.9389 58.8384 50.4309 58.8384C49.9229 58.8384 49.5029 59.0117 49.1559 59.3602C48.8229 59.6929 48.6479 60.1291 48.6479 60.6648Z" fill="#FCFDFC"/>
<path d="M23.3849 63.2601V67.2456H21.9929V60.7086C21.9929 59.7088 22.3119 58.926 22.9349 58.3603C23.5589 57.7947 24.3109 57.5059 25.1679 57.5059C26.0239 57.5059 26.8049 57.8106 27.4149 58.434C28.0379 59.0574 28.3429 59.7964 28.3429 60.6668C28.3429 61.5372 28.0379 62.2901 27.4309 62.9135C26.8209 63.523 26.0679 63.8277 25.1699 63.8277C24.4889 63.8277 23.8349 63.5967 23.5899 63.4075L23.3869 63.2621L23.3849 63.2601ZM25.1679 58.8384C24.1379 58.8384 23.3849 59.6211 23.3849 60.6648C23.3849 61.7085 24.1679 62.4913 25.1679 62.4913C26.1679 62.4913 26.9499 61.7224 26.9499 60.6648C26.9499 59.6072 26.1679 58.8384 25.1679 58.8384Z" fill="#FCFDFC"/>
<path d="M30.6279 63.7507H29.2519V60.0679C29.2519 58.2853 30.2519 57.5742 31.5999 57.5742H31.9329V58.9087H31.6719C30.9769 58.9087 30.6279 59.3011 30.6279 60.0679V63.7507Z" fill="#FCFDFC"/>
</svg>
