<svg width="130" height="133" viewBox="0 0 130 133" fill="none" xmlns="http://www.w3.org/2000/svg">
<rect x="2.5" y="2.5" width="125" height="125" rx="62.5" fill="#E6FF03"/>
<rect x="2.5" y="2.5" width="125" height="125" rx="62.5" stroke="#101E1C" stroke-width="5"/>
<g filter="url(#filter0_d_920_4676)">
<rect x="5" y="5" width="120" height="120" rx="60" fill="#101E1C"/>
<rect x="6" y="6" width="118" height="118" rx="59" stroke="#E6FF03" stroke-width="2"/>
<path d="M46.6386 60.6641C46.5342 60.3011 46.3876 59.9805 46.1986 59.7021C46.0097 59.4187 45.7785 59.18 45.5051 58.9862C45.2366 58.7873 44.9284 58.6357 44.5804 58.5312C44.2373 58.4268 43.857 58.3746 43.4394 58.3746C42.6589 58.3746 41.9728 58.5685 41.3812 58.9563C40.7945 59.3441 40.3371 59.9084 40.009 60.6491C39.6809 61.3849 39.5168 62.2848 39.5168 63.3487C39.5168 64.4126 39.6784 65.3175 40.0016 66.0632C40.3247 66.8089 40.7821 67.3782 41.3737 67.771C41.9653 68.1587 42.6638 68.3526 43.4692 68.3526C44.2001 68.3526 44.824 68.2234 45.341 67.9648C45.8631 67.7013 46.2608 67.331 46.5342 66.8537C46.8126 66.3764 46.9518 65.8121 46.9518 65.1609L47.6081 65.2578H43.6706V62.8267H50.0616V64.7507C50.0616 66.093 49.7782 67.2464 49.2114 68.2109C48.6447 69.1705 47.8641 69.9112 46.8698 70.4332C45.8755 70.9503 44.737 71.2088 43.4543 71.2088C42.0225 71.2088 40.7647 70.8931 39.6809 70.2617C38.5971 69.6254 37.7519 68.723 37.1454 67.5547C36.5438 66.3814 36.243 64.9893 36.243 63.3786C36.243 62.1406 36.422 61.0369 36.78 60.0675C37.1429 59.093 37.65 58.2678 38.3013 57.5916C38.9525 56.9155 39.7107 56.4009 40.5758 56.0479C41.4408 55.695 42.378 55.5185 43.3872 55.5185C44.2523 55.5185 45.0577 55.6452 45.8034 55.8988C46.5491 56.1474 47.2104 56.5004 47.7871 56.9577C48.3687 57.4151 48.8435 57.9595 49.2114 58.5909C49.5793 59.2173 49.8155 59.9084 49.9199 60.6641H46.6386ZM57.9011 71H52.4871V55.7273H57.9459C59.4821 55.7273 60.8046 56.033 61.9132 56.6445C63.0219 57.2511 63.8745 58.1236 64.4711 59.2621C65.0727 60.4006 65.3734 61.7628 65.3734 63.3487C65.3734 64.9396 65.0727 66.3068 64.4711 67.4503C63.8745 68.5937 63.0169 69.4712 61.8983 70.0827C60.7847 70.6942 59.4523 71 57.9011 71ZM55.7161 68.2333H57.7669C58.7215 68.2333 59.5244 68.0643 60.1756 67.7262C60.8319 67.3832 61.3241 66.8537 61.6522 66.1378C61.9853 65.4169 62.1519 64.4872 62.1519 63.3487C62.1519 62.2202 61.9853 61.2979 61.6522 60.582C61.3241 59.8661 60.8344 59.3391 60.1831 59.0011C59.5318 58.663 58.7289 58.494 57.7744 58.494H55.7161V68.2333ZM67.7654 71V55.7273H73.791C74.9494 55.7273 75.9362 55.9485 76.7516 56.391C77.5669 56.8285 78.1883 57.4375 78.6159 58.218C79.0484 58.9936 79.2647 59.8885 79.2647 60.9027C79.2647 61.9169 79.0459 62.8118 78.6084 63.5874C78.1709 64.3629 77.5371 64.967 76.7068 65.3995C75.8815 65.832 74.8822 66.0483 73.7089 66.0483H69.8684V63.4606H73.1869C73.8084 63.4606 74.3204 63.3537 74.7231 63.1399C75.1308 62.9212 75.4341 62.6204 75.6329 62.2376C75.8368 61.8498 75.9387 61.4048 75.9387 60.9027C75.9387 60.3956 75.8368 59.9531 75.6329 59.5753C75.4341 59.1925 75.1308 58.8967 74.7231 58.6879C74.3155 58.4741 73.7984 58.3672 73.172 58.3672H70.9945V71H67.7654ZM81.3621 71V55.7273H87.3877C88.5411 55.7273 89.5254 55.9336 90.3408 56.3462C91.1611 56.7539 91.785 57.3331 92.2126 58.0838C92.6451 58.8295 92.8614 59.707 92.8614 60.7163C92.8614 61.7305 92.6426 62.603 92.2051 63.3338C91.7676 64.0597 91.1337 64.6165 90.3035 65.0043C89.4782 65.392 88.4789 65.5859 87.3056 65.5859H83.2712V62.9908H86.7836C87.4001 62.9908 87.9122 62.9062 88.3198 62.7372C88.7275 62.5682 89.0308 62.3146 89.2296 61.9766C89.4335 61.6385 89.5354 61.2184 89.5354 60.7163C89.5354 60.2092 89.4335 59.7816 89.2296 59.4336C89.0308 59.0856 88.725 58.8221 88.3124 58.6431C87.9047 58.4592 87.3901 58.3672 86.7687 58.3672H84.5911V71H81.3621ZM89.61 64.0497L93.4058 71H89.8411L86.1274 64.0497H89.61Z" fill="#F1EFED"/>
<path opacity="0.15" d="M64.5 9L66.1839 14.1824H71.6329L67.2245 17.3853L68.9084 22.5676L64.5 19.3647L60.0916 22.5676L61.7755 17.3853L57.3671 14.1824H62.8161L64.5 9Z" fill="#E6FF03"/>
<path opacity="0.15" d="M88.5 15L90.1839 20.1824H95.6329L91.2245 23.3853L92.9084 28.5676L88.5 25.3647L84.0916 28.5676L85.7755 23.3853L81.3671 20.1824H86.8161L88.5 15Z" fill="#E6FF03"/>
<path opacity="0.15" d="M105.5 33L107.184 38.1824H112.633L108.225 41.3853L109.908 46.5676L105.5 43.3647L101.092 46.5676L102.775 41.3853L98.3671 38.1824H103.816L105.5 33Z" fill="#E6FF03"/>
<path opacity="0.15" d="M112.5 57L114.184 62.1824H119.633L115.225 65.3853L116.908 70.5676L112.5 67.3647L108.092 70.5676L109.775 65.3853L105.367 62.1824H110.816L112.5 57Z" fill="#E6FF03"/>
<path opacity="0.15" d="M105.5 81L107.184 86.1824H112.633L108.225 89.3853L109.908 94.5676L105.5 91.3647L101.092 94.5676L102.775 89.3853L98.3671 86.1824H103.816L105.5 81Z" fill="#E6FF03"/>
<path opacity="0.15" d="M88.5 98L90.1839 103.182H95.6329L91.2245 106.385L92.9084 111.568L88.5 108.365L84.0916 111.568L85.7755 106.385L81.3671 103.182H86.8161L88.5 98Z" fill="#E6FF03"/>
<path opacity="0.15" d="M64.5 104L66.1839 109.182H71.6329L67.2245 112.385L68.9084 117.568L64.5 114.365L60.0916 117.568L61.7755 112.385L57.3671 109.182H62.8161L64.5 104Z" fill="#E6FF03"/>
<path opacity="0.15" d="M40.5 98L42.1839 103.182H47.6329L43.2245 106.385L44.9084 111.568L40.5 108.365L36.0916 111.568L37.7755 106.385L33.3671 103.182H38.8161L40.5 98Z" fill="#E6FF03"/>
<path opacity="0.15" d="M22.5 80L24.1839 85.1824H29.6329L25.2245 88.3853L26.9084 93.5676L22.5 90.3647L18.0916 93.5676L19.7755 88.3853L15.3671 85.1824H20.8161L22.5 80Z" fill="#E6FF03"/>
<path opacity="0.15" d="M16.5 56L18.1839 61.1824H23.6329L19.2245 64.3853L20.9084 69.5676L16.5 66.3647L12.0916 69.5676L13.7755 64.3853L9.36708 61.1824H14.8161L16.5 56Z" fill="#E6FF03"/>
<path opacity="0.15" d="M22.5 33L24.1839 38.1824H29.6329L25.2245 41.3853L26.9084 46.5676L22.5 43.3647L18.0916 46.5676L19.7755 41.3853L15.3671 38.1824H20.8161L22.5 33Z" fill="#E6FF03"/>
<path opacity="0.15" d="M40.5 15L42.1839 20.1824H47.6329L43.2245 23.3853L44.9084 28.5676L40.5 25.3647L36.0916 28.5676L37.7755 23.3853L33.3671 20.1824H38.8161L40.5 15Z" fill="#E6FF03"/>
</g>
<defs>
<filter id="filter0_d_920_4676" x="1" y="5" width="128" height="128" filterUnits="userSpaceOnUse" color-interpolation-filters="sRGB">
<feFlood flood-opacity="0" result="BackgroundImageFix"/>
<feColorMatrix in="SourceAlpha" type="matrix" values="0 0 0 0 0 0 0 0 0 0 0 0 0 0 0 0 0 0 127 0" result="hardAlpha"/>
<feOffset dy="4"/>
<feGaussianBlur stdDeviation="2"/>
<feComposite in2="hardAlpha" operator="out"/>
<feColorMatrix type="matrix" values="0 0 0 0 0.0627451 0 0 0 0 0.117647 0 0 0 0 0.109804 0 0 0 0.05 0"/>
<feBlend mode="normal" in2="BackgroundImageFix" result="effect1_dropShadow_920_4676"/>
<feBlend mode="normal" in="SourceGraphic" in2="effect1_dropShadow_920_4676" result="shape"/>
</filter>
</defs>
</svg>
