<svg width="130" height="133" viewBox="0 0 130 133" fill="none" xmlns="http://www.w3.org/2000/svg">
<rect x="2.5" y="2.5" width="125" height="125" rx="62.5" fill="#E6FF03"/>
<rect x="2.5" y="2.5" width="125" height="125" rx="62.5" stroke="#101E1C" stroke-width="5"/>
<g filter="url(#filter0_d_920_4682)">
<rect x="5" y="5" width="120" height="120" rx="60" fill="#101E1C"/>
<rect x="6" y="6" width="118" height="118" rx="59" stroke="#E6FF03" stroke-width="2"/>
<path opacity="0.15" fill-rule="evenodd" clip-rule="evenodd" d="M62.9564 25.3449C62.1548 25.6391 61.0977 26.256 60.6082 26.7163C56.98 30.1246 58.362 36.8051 62.9924 38.2429C63.7833 38.4886 63.8455 38.7279 63.8455 41.5155C63.8455 43.1698 63.7094 44.5234 63.5433 44.5234C62.9943 44.5234 60.5786 41.7263 58.5368 38.7264C53.0833 30.7154 49.3918 30.494 35.2251 37.3288C29.9335 39.882 25.2921 41.4901 23.2151 41.4901C21.7708 41.4901 21 42.4232 21 44.1711C21 47.8949 27.6293 51.1929 32.3772 49.8309C33.3767 49.5443 33.7391 49.5678 33.8552 49.9257C34.2279 51.078 36.8612 53.1979 38.4552 53.629C40.3339 54.1371 43.7904 53.9471 45.2964 53.2533C46.3558 52.7649 47.4706 50.3674 46.9026 49.7995C46.7073 49.6042 45.7366 49.779 44.5855 50.2165C40.423 51.798 37.5592 50.8573 35.7961 47.3292L34.8387 45.4133L33.7111 46.0954C31.2685 47.5726 27.6191 47.3698 25.4116 45.6336C24.1698 44.6565 24.1383 44.1442 25.3206 44.1442C26.9885 44.1442 31.3826 42.5605 35.787 40.3715C43.0958 36.7395 46.2368 35.613 49.0581 35.613C52.284 35.613 53.1872 36.2986 56.7396 41.4427C59.3509 45.2241 61.8735 47.5567 63.3511 47.5567C63.7386 47.5567 63.8455 48.982 63.8455 54.1511V60.7451L64.7581 60.9742C65.2602 61.1004 65.9427 61.3078 66.2748 61.4352C66.8136 61.6419 66.8788 60.9313 66.8788 54.859V48.0511L68.4038 47.3633C70.1954 46.5553 72.0085 44.6311 74.7252 40.6529C77.1883 37.0467 78.8365 35.7427 81.2082 35.5228C83.4293 35.3173 86.4224 36.3611 94.5578 40.1786C100.599 43.0139 103.753 44.1442 105.623 44.1442C107.014 44.1442 106.969 44.5215 105.456 45.5441C102.676 47.4229 100.194 47.6625 97.5217 46.3096L95.8071 45.4413L94.9745 47.256C93.3679 50.7584 90.2842 51.7916 86.1388 50.2165C83.7884 49.3232 83.2966 49.6125 83.9753 51.4894C84.3753 52.5954 84.7757 52.9488 86.1661 53.4227C89.9771 54.7214 93.8756 53.7621 96.1154 50.9749C97.2275 49.5913 97.3101 49.5579 98.7479 49.9231C101.019 50.4994 104.044 49.9629 106.335 48.5774C108.828 47.0691 109.876 45.687 109.876 43.9076C109.876 42.1946 109.191 41.6656 106.576 41.3581C103.81 41.0332 101.37 40.138 94.7473 37.0197C85.0643 32.4607 81.3686 31.592 78.0641 33.098C75.7971 34.1316 74.4132 35.4568 72.1875 38.7264C70.1457 41.7263 67.73 44.5234 67.181 44.5234C67.0149 44.5234 66.8788 43.1914 66.8788 41.5629V38.6027L68.4137 37.9256C73.1718 35.8261 73.397 28.145 68.7705 25.7525C67.2 24.9407 64.5633 24.7557 62.9564 25.3449ZM68.1111 29.3618C70.6689 32.1695 68.0591 36.5617 64.3816 35.6388C62.6595 35.2066 61.569 33.7627 61.5826 31.9333C61.5963 30.0951 62.096 29.2586 63.6919 28.4036C65.1836 27.6047 66.8367 27.963 68.1111 29.3618ZM53.6631 48.7207C49.7755 50.278 48.0124 54.5572 49.647 58.4698C51.0336 61.789 53.7825 63.3872 62.1211 65.722C70.5586 68.0842 72.5663 69.458 72.5663 72.8681C72.5663 75.2971 71.3541 76.6306 67.0684 78.9173C61.7013 81.7808 59.3941 83.4593 58.3662 85.2478C57.1703 87.3287 56.8909 88.892 57.3864 90.7325C58.1728 93.6524 60.1354 95.1944 65.6211 97.201C68.3606 98.2035 69.1902 98.9914 69.4981 100.884C69.765 102.523 70.7247 103.304 71.7131 102.685C73.2397 101.729 72.3043 97.5229 70.2382 96.0517C69.6156 95.6085 67.4601 94.6253 65.4475 93.8666C62.4263 92.728 61.6319 92.2563 60.8903 91.1605C58.8883 88.2027 60.4933 86.0232 67.4074 82.3089C72.6284 79.5047 73.6677 78.6735 74.8484 76.3591C75.5226 75.0377 75.6508 74.2506 75.5328 72.1618C75.4096 69.9778 75.2125 69.3738 74.2243 68.1476C72.3763 65.8548 70.1627 64.7609 63.6559 62.9253C56.2141 60.8255 55.0698 60.3303 53.4052 58.4876C52.3303 57.2982 52.0914 56.7336 52.0914 55.3838C52.0914 52.5438 54.5897 50.7284 57.1995 51.6721C58.861 52.2727 59.5754 52.217 60.0031 51.453C61.1288 49.4408 56.6664 47.5176 53.6631 48.7207ZM72.2155 48.9793C68.8812 50.6814 70.0274 52.9367 73.5748 51.6539C75.2917 51.0332 77.2607 51.9679 78.146 53.8243C78.7235 55.0357 78.733 55.3303 78.2367 56.7514C77.5322 58.7693 75.2159 60.5685 72.0851 61.5296L69.7468 62.2474L71.7636 63.2696L73.7803 64.2915L75.7861 63.3102C79.2858 61.5979 81.6764 58.2703 81.6556 55.14C81.6389 52.5791 79.2809 49.7122 76.3962 48.7465C74.6278 48.1546 73.7333 48.2043 72.2155 48.9793ZM56.371 68.2935C55.5335 69.3916 55.3056 70.1442 55.1896 72.1932C55.0178 75.233 55.7667 77.0113 58.1095 79.1281L59.6326 80.5041L61.1773 79.6707C62.722 78.8381 62.722 78.8377 61.8712 78.269C57.3804 75.269 56.5728 71.2893 59.9845 68.9715C60.7451 68.4543 61.285 68.0296 61.1845 68.0274C61.084 68.0251 60.1934 67.7779 59.2053 67.4783L57.4084 66.9331L56.371 68.2935ZM63.8455 73.3042V77.9L65.2188 77.326C65.9741 77.0105 66.6566 76.7523 66.7355 76.7523C66.8144 76.7523 66.8788 75.15 66.8788 73.1912C66.8788 69.7457 66.8492 69.6229 65.9662 69.4015C65.4642 69.2752 64.7817 69.0678 64.4495 68.9404C63.9175 68.7364 63.8455 69.2559 63.8455 73.3042ZM69.0901 83.983L67.6993 84.7011L68.9953 85.9971C70.0585 87.0603 70.2913 87.5786 70.2913 88.884C70.2913 89.8539 70.0024 90.8803 69.5512 91.5143L68.8106 92.554L70.1328 93.1841C70.8597 93.5311 71.5304 93.8147 71.6237 93.8147C71.7166 93.8147 72.1371 93.139 72.5587 92.3132C73.9206 89.6435 73.2901 85.7794 71.1846 83.895C70.5271 83.3065 70.3891 83.3122 69.0901 83.983ZM65.2674 86.0994C63.9399 86.9408 63.8455 87.1243 63.8455 88.8617C63.8455 90.6589 63.8918 90.7378 65.198 91.1689C65.9419 91.4146 66.6316 91.534 66.7306 91.435C66.8299 91.3357 66.861 89.8918 66.7999 88.2266L66.6892 85.1982L65.2674 86.0994ZM58.8925 98.0302C58.1732 99.374 58.2449 102.176 59.0112 102.671C59.9921 103.306 60.9578 102.534 61.2232 100.903C61.3449 100.154 61.6399 99.3069 61.8784 99.0195C62.2242 98.6024 62.0433 98.3688 60.9805 97.8622C59.3251 97.0728 59.4085 97.066 58.8925 98.0302ZM63.9244 102.061L64.0351 105H65.3622H66.6892L66.8026 102.618L66.9156 100.237L65.5824 99.68C64.8491 99.3736 64.1511 99.123 64.0313 99.123C63.9115 99.123 63.8633 100.445 63.9244 102.061Z" fill="#E6FF03"/>
<path d="M33.4251 71V55.7273H36.6541V62.0288H43.2092V55.7273H46.4308V71H43.2092V64.6911H36.6541V71H33.4251ZM52.3221 55.7273V71H49.093V55.7273H52.3221ZM54.9788 71V55.7273H61.0044C62.1627 55.7273 63.1496 55.9485 63.9649 56.391C64.7803 56.8285 65.4017 57.4375 65.8293 58.218C66.2618 58.9936 66.4781 59.8885 66.4781 60.9027C66.4781 61.9169 66.2593 62.8118 65.8218 63.5874C65.3843 64.3629 64.7504 64.967 63.9202 65.3995C63.0949 65.832 62.0956 66.0483 60.9223 66.0483H57.0818V63.4606H60.4003C61.0218 63.4606 61.5338 63.3537 61.9365 63.1399C62.3442 62.9212 62.6475 62.6204 62.8463 62.2376C63.0502 61.8498 63.1521 61.4048 63.1521 60.9027C63.1521 60.3956 63.0502 59.9531 62.8463 59.5753C62.6475 59.1925 62.3442 58.8967 61.9365 58.6879C61.5289 58.4741 61.0118 58.3672 60.3854 58.3672H58.2078V71H54.9788ZM69.4442 71H65.984L71.2564 55.7273H75.4176L80.6825 71H77.2223L73.3967 59.2173H73.2773L69.4442 71ZM69.228 64.9968H77.4013V67.5174H69.228V64.9968ZM85.1532 71H81.693L86.9654 55.7273H91.1266L96.3915 71H92.9313L89.1056 59.2173H88.9863L85.1532 71ZM84.937 64.9968H93.1103V67.5174H84.937V64.9968Z" fill="#F1EFED"/>
</g>
<defs>
<filter id="filter0_d_920_4682" x="1" y="5" width="128" height="128" filterUnits="userSpaceOnUse" color-interpolation-filters="sRGB">
<feFlood flood-opacity="0" result="BackgroundImageFix"/>
<feColorMatrix in="SourceAlpha" type="matrix" values="0 0 0 0 0 0 0 0 0 0 0 0 0 0 0 0 0 0 127 0" result="hardAlpha"/>
<feOffset dy="4"/>
<feGaussianBlur stdDeviation="2"/>
<feComposite in2="hardAlpha" operator="out"/>
<feColorMatrix type="matrix" values="0 0 0 0 0.0627451 0 0 0 0 0.117647 0 0 0 0 0.109804 0 0 0 0.05 0"/>
<feBlend mode="normal" in2="BackgroundImageFix" result="effect1_dropShadow_920_4682"/>
<feBlend mode="normal" in="SourceGraphic" in2="effect1_dropShadow_920_4682" result="shape"/>
</filter>
</defs>
</svg>
