<svg xmlns="http://www.w3.org/2000/svg" fill="none" viewBox="0 0 76 76"><path fill="#F0F7E2" d="M37.7 0a37.7 37.7 0 0 0 0 75.4 37.7 37.7 0 0 0 0-75.4Z"/><path fill="#93C926" fill-opacity=".5" fill-rule="evenodd" d="M36.42 9.64c-.5.19-1.17.57-1.48.86-2.28 2.14-1.4 6.34 1.5 7.25.5.15.54.3.54 2.05 0 1.04-.09 1.9-.2 1.9-.34 0-1.86-1.77-3.14-3.65-3.43-5.03-5.75-5.17-14.65-.88-3.32 1.6-6.24 2.62-7.54 2.62-.91 0-1.4.58-1.4 1.68 0 2.34 4.17 4.41 7.15 3.56.63-.18.86-.17.93.06.24.72 1.9 2.05 2.9 2.32a8.2 8.2 0 0 0 4.3-.23c.66-.31 1.36-1.82 1-2.17-.12-.13-.73-.02-1.46.26-2.61 1-4.41.4-5.52-1.82l-.6-1.2-.7.43c-1.54.93-3.84.8-5.22-.3-.78-.6-.8-.93-.06-.93 1.05 0 3.8-1 6.58-2.37 4.59-2.28 6.56-2.99 8.33-2.99 2.03 0 2.6.43 4.83 3.67 1.64 2.37 3.23 3.84 4.16 3.84.24 0 .3.9.3 4.14v4.14l.58.15c.32.08.74.2.95.29.34.13.38-.32.38-4.13V23.9l.96-.43c1.13-.51 2.27-1.72 3.97-4.22 1.55-2.27 2.59-3.09 4.08-3.22 1.4-.13 3.27.52 8.39 2.92 3.8 1.78 5.77 2.5 6.95 2.5.87 0 .84.23-.1.87-1.75 1.18-3.31 1.33-5 .48l-1.07-.54-.52 1.14c-1.01 2.2-2.95 2.85-5.55 1.86-1.48-.56-1.8-.38-1.36.8.25.7.5.92 1.37 1.21 2.4.82 4.85.22 6.25-1.53.7-.87.75-.9 1.66-.67 1.43.37 3.33.03 4.77-.84 1.56-.95 2.22-1.82 2.22-2.94 0-1.07-.43-1.4-2.07-1.6-1.74-.2-3.27-.76-7.44-2.72-6.08-2.87-8.4-3.41-10.48-2.47-1.42.65-2.3 1.48-3.7 3.54-1.27 1.88-2.8 3.64-3.14 3.64-.1 0-.19-.84-.19-1.86v-1.86l.97-.42c2.99-1.32 3.13-6.15.22-7.65a5.25 5.25 0 0 0-3.65-.26Zm3.24 2.52c1.6 1.77-.04 4.53-2.35 3.95a2.29 2.29 0 0 1-1.76-2.33c.01-1.15.33-1.68 1.33-2.22.94-.5 1.98-.27 2.78.6Zm-9.08 12.17a4.59 4.59 0 0 0-2.53 6.13c.88 2.08 2.6 3.09 7.84 4.55 5.3 1.49 6.57 2.35 6.57 4.5 0 1.52-.77 2.36-3.46 3.8-3.37 1.8-4.82 2.85-5.47 3.97-.75 1.3-.92 2.3-.61 3.45.5 1.83 1.73 2.8 5.17 4.06 1.72.63 2.25 1.13 2.44 2.32.17 1.03.77 1.52 1.39 1.13.96-.6.37-3.25-.93-4.17-.39-.28-1.74-.9-3-1.37-1.9-.72-2.4-1.01-2.87-1.7-1.26-1.86-.25-3.23 4.1-5.57 3.28-1.76 3.93-2.28 4.67-3.73.42-.83.5-1.33.43-2.64-.08-1.37-.2-1.75-.82-2.52-1.16-1.44-2.55-2.13-6.64-3.29-4.68-1.31-5.4-1.63-6.44-2.78-.68-.75-.83-1.1-.83-1.95 0-1.79 1.57-2.93 3.21-2.34 1.04.38 1.5.35 1.76-.13.71-1.27-2.1-2.48-3.98-1.72Zm11.66.16c-2.1 1.07-1.38 2.49.85 1.68 1.08-.39 2.32.2 2.87 1.37.37.76.37.94.06 1.84-.44 1.26-1.9 2.4-3.87 3l-1.47.45 2.54 1.28 1.26-.61c2.2-1.08 3.7-3.17 3.69-5.14-.01-1.6-1.5-3.4-3.3-4.01-1.12-.38-1.68-.35-2.63.14Zm-9.96 12.14c-.53.69-.67 1.16-.74 2.45-.11 1.9.36 3.03 1.83 4.36l.96.86.97-.52c.97-.53.97-.53.44-.88-2.83-1.89-3.33-4.39-1.19-5.85.48-.32.82-.59.75-.59-.06 0-.62-.16-1.24-.34l-1.13-.35-.65.86Zm4.7 3.15v2.88l.86-.36c.47-.2.9-.36.95-.36.05 0 .1-1 .1-2.23 0-2.17-.03-2.25-.58-2.39-.32-.08-.75-.2-.95-.29-.34-.12-.38.2-.38 2.75Zm3.3 6.7-.88.46.81.81c.67.67.82 1 .82 1.82 0 .6-.18 1.25-.47 1.65l-.46.65.83.4c.45.22.88.4.93.4.06 0 .33-.43.6-.95.85-1.68.45-4.1-.87-5.29-.41-.37-.5-.36-1.32.06Zm-2.41 1.34c-.83.53-.9.64-.9 1.73 0 1.13.04 1.18.86 1.45.46.16.9.23.96.17.06-.06.08-.97.04-2.02l-.07-1.9-.89.57Zm-4 7.5c-.46.84-.41 2.6.07 2.91.62.4 1.22-.09 1.39-1.11.08-.47.26-1 .41-1.18.22-.27.1-.41-.56-.73-1.04-.5-1-.5-1.32.1Zm3.16 2.53.07 1.84h1.66l.15-2.99-.84-.35c-.46-.2-.9-.35-.98-.35-.07 0-.1.83-.06 1.85Z" clip-rule="evenodd"/><path fill="#5D770D" d="M38.96 49.64c13.33 0 25.1 2.21 32.12 5.6a37.7 37.7 0 0 1-66.2 1.03c6.65-3.95 19.42-6.63 34.08-6.63Z"/><path fill="#FCFDFC" d="M41.34 54.04v4.03c.04-.05.11-.09.2-.15a3.1 3.1 0 0 1 1.58-.42c.9 0 1.65.3 2.26.93.61.61.91 1.35.91 2.23 0 .89-.3 1.61-.92 2.24-.61.62-1.37.92-2.25.92-.89 0-1.61-.29-2.23-.85a3.01 3.01 0 0 1-.95-2.35v-6.58h1.4Zm1.78 4.8c-1 0-1.78.77-1.78 1.82 0 1.06.75 1.83 1.78 1.83s1.78-.78 1.78-1.83c0-1.04-.78-1.82-1.78-1.82ZM33.57 58.43a3.04 3.04 0 0 1 2.25-.93c.88 0 1.6.3 2.23.93.62.63.93 1.36.93 2.23 0 .88-.3 1.63-.93 2.25-.62.61-1.36.92-2.23.92a3.1 3.1 0 0 1-2.25-.92 3.04 3.04 0 0 1-.93-2.25c0-.88.3-1.6.93-2.23Zm.47 2.23c0 .54.17.98.5 1.32.35.34.77.51 1.28.51.5 0 .93-.17 1.26-.5.35-.36.52-.79.52-1.33 0-.53-.17-.97-.52-1.3a1.67 1.67 0 0 0-1.26-.52c-.5 0-.93.17-1.28.52-.33.33-.5.77-.5 1.3ZM48.18 58.43a3.04 3.04 0 0 1 2.25-.93c.88 0 1.61.3 2.23.93.63.63.93 1.36.93 2.23 0 .88-.3 1.63-.93 2.25-.62.61-1.36.92-2.23.92a3.1 3.1 0 0 1-2.25-.92 3.04 3.04 0 0 1-.92-2.25c0-.88.3-1.6.92-2.23Zm.47 2.23c0 .54.17.98.5 1.32.35.34.77.51 1.28.51.5 0 .93-.17 1.26-.5.35-.36.52-.79.52-1.33 0-.53-.17-.97-.52-1.3a1.67 1.67 0 0 0-1.26-.52c-.5 0-.93.17-1.27.52-.34.33-.51.77-.51 1.3ZM23.39 63.26v3.99h-1.4V60.7c0-1 .32-1.78.95-2.35a3.23 3.23 0 0 1 2.23-.85c.85 0 1.63.3 2.24.92.63.63.93 1.37.93 2.24a3.11 3.11 0 0 1-3.17 3.16c-.68 0-1.33-.23-1.58-.42l-.2-.15Zm1.78-4.42c-1.03 0-1.78.78-1.78 1.82 0 1.05.78 1.83 1.78 1.83s1.78-.77 1.78-1.83c0-1.05-.78-1.82-1.78-1.82ZM30.63 63.75h-1.38v-3.68c0-1.78 1-2.5 2.35-2.5h.33v1.34h-.26c-.7 0-1.04.4-1.04 1.16v3.68Z"/><path fill="#141E12" d="M18.49 31.48v-9.6h2.03v3.96h4.12v-3.96h2.02v9.6h-2.02v-3.96h-4.12v3.96h-2.03Zm11.87-9.6v9.6h-2.02v-9.6h2.02Zm1.67 9.6v-9.6h3.79c.73 0 1.35.14 1.86.42.51.28.9.66 1.17 1.15.27.49.4 1.05.4 1.69 0 .63-.13 1.2-.4 1.68-.28.49-.68.87-1.2 1.14-.52.27-1.14.4-1.88.4h-2.42v-1.62h2.09c.4 0 .71-.06.97-.2.25-.14.44-.32.57-.57.13-.24.19-.52.19-.83 0-.32-.06-.6-.2-.84a1.28 1.28 0 0 0-.56-.56c-.26-.13-.59-.2-.98-.2h-1.37v7.94h-2.03Zm9.1 0h-2.18l3.31-9.6h2.62l3.3 9.6h-2.17l-2.4-7.4h-.08l-2.4 7.4Zm-.14-3.77h5.13v1.58H41v-1.58Zm10 3.77h-2.17l3.31-9.6h2.62l3.3 9.6h-2.17l-2.4-7.4h-.08l-2.4 7.4Zm-.13-3.77h5.13v1.58h-5.13v-1.58Z"/></svg>