<svg xmlns="http://www.w3.org/2000/svg" fill="none" viewBox="0 0 77 76"><path fill="#F0F7E2" d="M38.51 0a37.7 37.7 0 0 0 0 75.4 37.7 37.7 0 0 0 0-75.4Z"/><path fill="#93C926" fill-opacity=".5" d="M64.03 37.07a25.52 25.52 0 1 0-51.04 0 25.52 25.52 0 0 0 51.04 0Zm2.37 0a27.89 27.89 0 1 1-55.78 0 27.89 27.89 0 0 1 55.78 0Z"/><path fill="#93C926" fill-opacity=".5" d="M65.22 35.9h.12a1.18 1.18 0 0 1 0 2.35H11.8a1.18 1.18 0 1 1 0-2.36h53.4Z"/><path fill="#93C926" fill-opacity=".5" d="M39.38 9.57a42.04 42.04 0 0 1 11 27.48v.05a42.04 42.04 0 0 1-11 27.47 1.18 1.18 0 0 1-1.74 0 42.05 42.05 0 0 1-11-27.47v-.05a42.05 42.05 0 0 1 11-27.48l.87.8.87-.8Zm-.87 2.58a39.68 39.68 0 0 0-9.5 24.92A39.68 39.68 0 0 0 38.5 62a39.68 39.68 0 0 0 9.5-24.92 39.67 39.67 0 0 0-9.5-24.92Z"/><path fill="#93C926" fill-opacity=".5" d="M19.05 19.45c7.69 3.12 13.69 4.64 19.59 4.64s11.8-1.52 19.32-4.64l.9 2.19c-7.66 3.17-13.9 4.8-20.22 4.8-6.33 0-12.65-1.62-20.48-4.8l.9-2.19ZM19.05 55.37c7.69-3.12 13.69-4.63 19.59-4.63s11.8 1.51 19.32 4.63l.9-2.18c-7.66-3.18-13.9-4.82-20.22-4.82-6.33 0-12.65 1.64-20.48 4.81l.9 2.2Z"/><path fill="#5D770D" d="M39.77 49.64c13.33 0 25.1 2.21 32.12 5.6a37.7 37.7 0 0 1-66.2 1.03c6.65-3.95 19.42-6.63 34.08-6.63Z"/><path fill="#FCFDFC" d="M42.14 54.04v4.03c.05-.05.12-.09.2-.15.1-.07.31-.16.62-.26.3-.1.63-.16.97-.16.9 0 1.65.3 2.26.93.6.61.91 1.35.91 2.23a3 3 0 0 1-.93 2.24c-.6.62-1.36.92-2.24.92-.89 0-1.61-.29-2.24-.85a3.02 3.02 0 0 1-.94-2.35v-6.58h1.4Zm1.79 4.8c-1 0-1.79.77-1.79 1.82 0 1.06.76 1.83 1.79 1.83s1.78-.78 1.78-1.83c0-1.04-.78-1.82-1.78-1.82ZM34.38 58.43a3.04 3.04 0 0 1 2.25-.93c.88 0 1.6.3 2.23.93.62.63.93 1.36.93 2.23 0 .88-.3 1.63-.93 2.25-.62.61-1.36.92-2.23.92a3.1 3.1 0 0 1-2.25-.92 3.04 3.04 0 0 1-.93-2.25c0-.88.3-1.6.93-2.23Zm.46 2.23c0 .54.18.98.51 1.32.35.34.77.51 1.28.51.5 0 .92-.17 1.26-.5.35-.36.52-.79.52-1.33 0-.53-.17-.97-.52-1.3a1.67 1.67 0 0 0-1.26-.52c-.51 0-.93.17-1.28.52-.33.33-.5.77-.5 1.3ZM49 58.43a3.04 3.04 0 0 1 2.24-.93c.88 0 1.6.3 2.23.93.63.63.93 1.36.93 2.23 0 .88-.3 1.63-.93 2.25-.62.61-1.36.92-2.23.92a3.1 3.1 0 0 1-2.25-.92 3.04 3.04 0 0 1-.93-2.25c0-.88.3-1.6.93-2.23Zm.46 2.23c0 .54.17.98.5 1.32.35.34.77.51 1.28.51.5 0 .93-.17 1.26-.5.35-.36.52-.79.52-1.33 0-.53-.17-.97-.52-1.3a1.67 1.67 0 0 0-1.26-.52c-.5 0-.93.17-1.28.52-.33.33-.5.77-.5 1.3ZM24.2 63.26v3.99h-1.4V60.7c0-1 .32-1.78.94-2.35a3.23 3.23 0 0 1 2.24-.85c.85 0 1.63.3 2.24.92.63.63.93 1.37.93 2.24a3.11 3.11 0 0 1-3.17 3.16 3 3 0 0 1-1.58-.42l-.2-.15Zm1.78-4.42c-1.03 0-1.79.78-1.79 1.82 0 1.05.79 1.83 1.79 1.83s1.78-.77 1.78-1.83c0-1.05-.78-1.82-1.78-1.82ZM31.44 63.75h-1.38v-3.68c0-1.78 1-2.5 2.35-2.5h.33v1.34h-.26c-.7 0-1.04.4-1.04 1.16v3.68Z"/><path fill="#141E12" d="M29.73 16.69v9.6H27.7v-9.6h2.03Zm6.87 2.76c-.04-.38-.2-.68-.48-.88-.29-.21-.67-.32-1.16-.32-.33 0-.61.05-.84.14-.23.1-.4.22-.52.38a.92.92 0 0 0-.18.55c0 .18.03.33.1.45.09.13.2.24.34.34.14.09.3.17.49.24.18.06.38.12.59.16l.86.21c.42.1.8.22 1.15.38.35.15.65.34.91.57a2.4 2.4 0 0 1 .82 1.87c0 .59-.16 1.1-.45 1.53-.3.43-.72.76-1.28 1-.55.23-1.22.35-2 .35-.77 0-1.45-.12-2.02-.36a2.97 2.97 0 0 1-1.34-1.05 3.14 3.14 0 0 1-.5-1.74h1.96c.02.32.11.6.28.8.16.22.38.38.66.49.27.1.59.16.94.16.34 0 .64-.05.9-.15.25-.1.45-.24.59-.42a.96.96 0 0 0 .2-.61.8.8 0 0 0-.18-.55c-.13-.14-.31-.27-.56-.37-.24-.1-.53-.2-.88-.28l-1.05-.26c-.8-.2-1.44-.5-1.91-.93-.47-.42-.7-.98-.7-1.69 0-.58.15-1.09.46-1.52.32-.44.75-.78 1.3-1.02a4.58 4.58 0 0 1 1.88-.36c.7 0 1.33.12 1.86.36s.95.58 1.25 1.02c.3.43.45.93.46 1.5H36.6Zm12.26 2.03c0 1.05-.2 1.94-.6 2.68-.39.73-.92 1.3-1.6 1.68-.68.38-1.45.57-2.3.57-.85 0-1.61-.19-2.29-.58a4.14 4.14 0 0 1-1.6-1.68 5.58 5.58 0 0 1-.6-2.67c0-1.04.2-1.93.6-2.67.39-.73.92-1.29 1.6-1.67a4.54 4.54 0 0 1 2.3-.58c.84 0 1.6.19 2.28.58a4.1 4.1 0 0 1 1.62 1.67c.4.74.6 1.63.6 2.67Zm-2.06 0c0-.67-.1-1.24-.3-1.71-.2-.47-.48-.82-.85-1.06-.37-.24-.8-.36-1.28-.36-.5 0-.92.12-1.29.36-.36.24-.65.6-.85 1.06-.2.47-.3 1.04-.3 1.71 0 .68.1 1.25.3 1.72.2.47.49.82.85 1.06.37.24.8.36 1.29.36s.91-.12 1.28-.36.65-.6.85-1.06c.2-.47.3-1.04.3-1.72Zm-28.12 17.8v-1.46l3.42-3.16c.3-.28.53-.54.73-.76.2-.23.35-.45.46-.66.1-.22.15-.46.15-.7 0-.3-.06-.53-.2-.74-.12-.2-.3-.36-.52-.47a1.65 1.65 0 0 0-.75-.17c-.3 0-.55.06-.77.18-.22.12-.39.29-.5.51-.12.22-.18.49-.18.8h-1.93a2.85 2.85 0 0 1 1.62-2.7c.51-.27 1.1-.4 1.77-.4.69 0 1.29.13 1.8.37s.9.58 1.2 1a2.84 2.84 0 0 1 .21 2.54c-.15.36-.4.75-.76 1.18-.36.43-.87.95-1.53 1.55l-1.4 1.37v.06h4.03v1.66h-6.85Zm8.7 0 3.97-7.87v-.06h-4.63v-1.66h6.73v1.68l-3.98 7.91h-2.1Zm11.02.21c-.8 0-1.5-.2-2.08-.6a3.76 3.76 0 0 1-1.34-1.7 6.98 6.98 0 0 1-.45-2.7c0-1.04.15-1.93.46-2.67.31-.74.76-1.3 1.34-1.68a3.65 3.65 0 0 1 2.07-.58c.8 0 1.5.19 2.07.58a3.7 3.7 0 0 1 1.34 1.68c.31.74.47 1.63.47 2.67 0 1.06-.16 1.96-.47 2.7-.31.75-.76 1.32-1.33 1.71-.58.4-1.27.6-2.08.6Zm0-1.68c.55 0 .99-.27 1.32-.83.33-.55.49-1.38.48-2.49 0-.72-.07-1.33-.22-1.81a2.34 2.34 0 0 0-.63-1.1 1.37 1.37 0 0 0-.95-.36c-.55 0-.98.27-1.31.82a4.9 4.9 0 0 0-.5 2.45c0 .74.07 1.36.22 1.85.15.5.36.86.63 1.1.28.25.6.37.96.37Zm9.09 1.68c-.81 0-1.5-.2-2.09-.6a3.76 3.76 0 0 1-1.33-1.7 6.98 6.98 0 0 1-.46-2.7c0-1.04.16-1.93.46-2.67.32-.74.76-1.3 1.34-1.68a3.65 3.65 0 0 1 2.08-.58c.8 0 1.49.19 2.07.58a3.7 3.7 0 0 1 1.34 1.68c.3.74.46 1.63.46 2.67 0 1.06-.16 1.96-.47 2.7-.3.75-.75 1.32-1.33 1.71-.58.4-1.27.6-2.08.6Zm0-1.68c.54 0 .98-.27 1.31-.83.33-.55.5-1.38.49-2.49 0-.72-.07-1.33-.23-1.81a2.35 2.35 0 0 0-.62-1.1 1.37 1.37 0 0 0-.95-.36c-.55 0-.99.27-1.32.82a4.9 4.9 0 0 0-.5 2.45c0 .74.08 1.36.23 1.85.15.5.36.86.63 1.1.27.25.59.37.95.37Zm9.5-8.12v9.6h-2.04V31.6h-.05L52.7 33v-1.8l2.38-1.5h1.9Z"/></svg>