<svg width="130" height="133" viewBox="0 0 130 133" fill="none" xmlns="http://www.w3.org/2000/svg">
<rect x="2.5" y="2.5" width="125" height="125" rx="62.5" fill="#E6FF03"/>
<rect x="2.5" y="2.5" width="125" height="125" rx="62.5" stroke="#101E1C" stroke-width="5"/>
<g filter="url(#filter0_d_920_4693)">
<rect x="5" y="5" width="120" height="120" rx="60" fill="#101E1C"/>
<rect x="6" y="6" width="118" height="118" rx="59" stroke="#E6FF03" stroke-width="2"/>
<g opacity="0.15" clip-path="url(#clip0_920_4693)">
<path d="M65 25C42.932 25 25 42.932 25 65C25 87.068 42.932 105 65 105C87.0032 105 104.886 87.1704 104.99 65.192C104.996 65.1282 104.999 65.0641 105 65C104.999 64.9321 104.995 64.8643 104.989 64.7968V64.7872C104.873 42.8192 86.996 25 65 25ZM63 29.216V46.4688C58.1736 46.3248 53.6048 45.6656 49.4752 44.6064C50.2072 42.612 51.0384 40.7624 51.956 39.0952C55.036 33.5032 58.9208 30.0688 63 29.216ZM67 29.2152C71.08 30.0672 74.9648 33.5032 78.044 39.0952C78.9616 40.7616 79.7928 42.6112 80.5248 44.6056C76.3952 45.6648 71.8264 46.3248 67 46.468V29.2152ZM52.6704 31.16C51.1072 32.8848 49.692 34.912 48.4512 37.1648C47.3904 39.0928 46.4472 41.2048 45.628 43.4616C43.2392 42.6456 41.044 41.6912 39.0952 40.6176C38.9616 40.5448 38.8368 40.4688 38.7064 40.3944C42.5708 36.262 47.3548 33.0986 52.6704 31.1608M77.3296 31.1608C82.6453 33.0988 87.4293 36.2625 91.2936 40.3952C91.1632 40.4696 91.0376 40.5456 90.9048 40.6192C88.956 41.6912 86.76 42.648 84.3704 43.464C83.5528 41.2064 82.6104 39.0936 81.5488 37.1656C80.308 34.9128 78.8928 32.8856 77.3296 31.1608ZM36.108 43.508C36.456 43.716 36.804 43.924 37.1656 44.124C39.3576 45.3312 41.7856 46.388 44.4 47.2784C43.0608 52.064 42.2576 57.38 42.1032 63H29.0576C29.4366 55.9501 31.8893 49.1691 36.108 43.508ZM93.892 43.508C98.1107 49.1691 100.563 55.9501 100.942 63H87.8832C87.7288 57.3816 86.9288 52.0656 85.5936 47.28C88.2104 46.3896 90.64 45.332 92.8344 44.1232C93.1952 43.9248 93.544 43.716 93.892 43.508ZM48.2456 48.4256C52.7776 49.6064 57.7552 50.3144 63 50.4584V63H46.1064C46.2616 57.7624 47.0232 52.824 48.2456 48.4264M81.7544 48.4264C82.9768 52.824 83.7384 57.7624 83.8936 63H67V50.4576C72.244 50.3136 77.2232 49.6064 81.7544 48.4264ZM29.0584 67H42.1032C42.2576 72.62 43.0608 77.9352 44.4 82.72C41.7864 83.612 39.3584 84.6696 37.1656 85.8768C36.8048 86.0752 36.456 86.2848 36.108 86.4928C31.8892 80.8315 29.4372 74.0502 29.0584 67ZM46.1056 67H63V79.528C57.7536 79.672 52.776 80.384 48.244 81.5672C47.0224 77.1712 46.2608 72.2352 46.1056 67ZM67 67H83.8936C83.7384 72.2352 82.9776 77.1712 81.756 81.5672C77.224 80.384 72.2464 79.6728 67 79.528V67ZM87.884 67H100.942C100.563 74.0499 98.1107 80.8309 93.892 86.492C93.544 86.284 93.196 86.076 92.8344 85.876C90.6408 84.668 88.2104 83.6104 85.5952 82.7184C86.9312 77.9336 87.7304 72.6184 87.884 67ZM63 83.5312V100.784C58.92 99.932 55.0352 96.496 51.956 90.904C51.0384 89.2376 50.2072 87.388 49.4752 85.3936C53.6048 84.3344 58.1736 83.6744 63 83.5312ZM67 83.5312C71.8264 83.6752 76.3952 84.3344 80.5248 85.3936C79.7928 87.388 78.9616 89.2376 78.044 90.9048C74.964 96.4968 71.0792 99.932 67 100.785V83.5312ZM84.3704 86.536C86.76 87.352 88.956 88.308 90.9048 89.3816C91.0384 89.4544 91.1632 89.5304 91.2936 89.6048C87.4293 93.7375 82.6453 96.9012 77.3296 98.8392C78.8928 97.1144 80.308 95.0872 81.5488 92.8344C82.6096 90.9064 83.552 88.7944 84.3704 86.536ZM45.628 86.5376C46.4472 88.7944 47.3904 90.9064 48.452 92.8344C49.692 95.0872 51.1072 97.1144 52.6704 98.8392C47.3547 96.9012 42.5707 93.7375 38.7064 89.6048C38.8368 89.5304 38.9624 89.4544 39.0952 89.3808C41.044 88.3088 43.2392 87.3536 45.628 86.5376Z" fill="#E6FF03"/>
</g>
<path d="M51.0198 44.7273V60H47.7908V44.7273H51.0198ZM61.9617 49.1197C61.902 48.5181 61.646 48.0508 61.1936 47.7177C60.7412 47.3846 60.1272 47.218 59.3516 47.218C58.8246 47.218 58.3797 47.2926 58.0167 47.4418C57.6538 47.5859 57.3754 47.7873 57.1815 48.0458C56.9926 48.3043 56.8981 48.5977 56.8981 48.9258C56.8882 49.1992 56.9454 49.4379 57.0696 49.6417C57.1989 49.8455 57.3754 50.022 57.5991 50.1712C57.8228 50.3153 58.0814 50.4421 58.3747 50.5515C58.668 50.6559 58.9812 50.7454 59.3143 50.82L60.6865 51.1481C61.3527 51.2972 61.9642 51.4961 62.521 51.7447C63.0778 51.9933 63.5601 52.299 63.9677 52.6619C64.3754 53.0249 64.6911 53.4524 64.9148 53.9446C65.1435 54.4368 65.2603 55.0011 65.2653 55.6374C65.2603 56.5721 65.0217 57.3825 64.5494 58.0685C64.0821 58.7496 63.4059 59.2791 62.521 59.657C61.641 60.0298 60.5796 60.2163 59.3367 60.2163C58.1037 60.2163 57.0299 60.0273 56.1151 59.6495C55.2053 59.2717 54.4944 58.7124 53.9823 57.9716C53.4752 57.2259 53.2092 56.3036 53.1843 55.2049H56.309C56.3438 55.717 56.4905 56.1445 56.749 56.4876C57.0125 56.8256 57.363 57.0817 57.8005 57.2557C58.2429 57.4247 58.7426 57.5092 59.2994 57.5092C59.8463 57.5092 60.3211 57.4297 60.7238 57.2706C61.1314 57.1115 61.4471 56.8903 61.6709 56.6069C61.8946 56.3235 62.0064 55.9979 62.0064 55.63C62.0064 55.2869 61.9045 54.9986 61.7007 54.7649C61.5018 54.5312 61.2085 54.3324 60.8207 54.1683C60.4379 54.0043 59.9681 53.8551 59.4113 53.7209L57.7483 53.3033C56.4606 52.9901 55.4439 52.5004 54.6982 51.8342C53.9525 51.168 53.5821 50.2706 53.587 49.142C53.5821 48.2173 53.8282 47.4094 54.3253 46.7184C54.8275 46.0273 55.516 45.4879 56.391 45.1001C57.266 44.7124 58.2603 44.5185 59.374 44.5185C60.5075 44.5185 61.4968 44.7124 62.342 45.1001C63.1922 45.4879 63.8534 46.0273 64.3257 46.7184C64.798 47.4094 65.0416 48.2099 65.0565 49.1197H61.9617ZM81.4721 52.3636C81.4721 54.0291 81.1564 55.446 80.525 56.6143C79.8986 57.7827 79.0435 58.6751 77.9597 59.2915C76.8808 59.9031 75.6677 60.2088 74.3204 60.2088C72.9632 60.2088 71.7452 59.9006 70.6663 59.2841C69.5875 58.6676 68.7349 57.7752 68.1084 56.6069C67.482 55.4386 67.1688 54.0241 67.1688 52.3636C67.1688 50.6982 67.482 49.2812 68.1084 48.1129C68.7349 46.9446 69.5875 46.0547 70.6663 45.4432C71.7452 44.8267 72.9632 44.5185 74.3204 44.5185C75.6677 44.5185 76.8808 44.8267 77.9597 45.4432C79.0435 46.0547 79.8986 46.9446 80.525 48.1129C81.1564 49.2812 81.4721 50.6982 81.4721 52.3636ZM78.1983 52.3636C78.1983 51.2848 78.0367 50.375 77.7136 49.6342C77.3954 48.8935 76.9454 48.3317 76.3638 47.9489C75.7821 47.5661 75.101 47.3746 74.3204 47.3746C73.5399 47.3746 72.8588 47.5661 72.2771 47.9489C71.6954 48.3317 71.243 48.8935 70.9199 49.6342C70.6017 50.375 70.4426 51.2848 70.4426 52.3636C70.4426 53.4425 70.6017 54.3523 70.9199 55.093C71.243 55.8338 71.6954 56.3956 72.2771 56.7784C72.8588 57.1612 73.5399 57.3526 74.3204 57.3526C75.101 57.3526 75.7821 57.1612 76.3638 56.7784C76.9454 56.3956 77.3954 55.8338 77.7136 55.093C78.0367 54.3523 78.1983 53.4425 78.1983 52.3636ZM33.4484 81V78.6733L38.8848 73.6396C39.3472 73.1921 39.735 72.7894 40.0482 72.4315C40.3663 72.0735 40.6075 71.723 40.7715 71.38C40.9356 71.032 41.0176 70.6566 41.0176 70.2539C41.0176 69.8065 40.9157 69.4212 40.7119 69.098C40.508 68.7699 40.2296 68.5188 39.8766 68.3448C39.5237 68.1658 39.1234 68.0763 38.676 68.0763C38.2087 68.0763 37.801 68.1708 37.453 68.3597C37.105 68.5487 36.8365 68.8196 36.6476 69.1726C36.4587 69.5256 36.3642 69.9457 36.3642 70.4329H33.2992C33.2992 69.4336 33.5254 68.5661 33.9778 67.8303C34.4303 67.0945 35.0641 66.5252 35.8795 66.1225C36.6948 65.7198 37.6345 65.5185 38.6984 65.5185C39.7921 65.5185 40.7442 65.7124 41.5546 66.1001C42.3699 66.483 43.0038 67.0149 43.4562 67.696C43.9086 68.3771 44.1348 69.1577 44.1348 70.0376C44.1348 70.6143 44.0205 71.1836 43.7918 71.7454C43.568 72.3072 43.1678 72.9311 42.5911 73.6172C42.0144 74.2983 41.2016 75.1161 40.1526 76.0707L37.9228 78.2557V78.3601H44.3362V81H33.4484ZM47.28 81L53.6113 68.4716V68.3672H46.2359V65.7273H56.9522V68.4045L50.6134 81H47.28ZM64.8253 81.3356C63.5427 81.3306 62.439 81.0149 61.5142 80.3885C60.5945 79.7621 59.8861 78.8548 59.3889 77.6665C58.8967 76.4783 58.6531 75.049 58.6581 73.3786C58.6581 71.7131 58.9042 70.2937 59.3964 69.1204C59.8935 67.9471 60.602 67.0547 61.5217 66.4432C62.4464 65.8267 63.5476 65.5185 64.8253 65.5185C66.103 65.5185 67.2017 65.8267 68.1215 66.4432C69.0462 67.0597 69.7571 67.9545 70.2543 69.1278C70.7515 70.2962 70.9976 71.7131 70.9926 73.3786C70.9926 75.054 70.744 76.4858 70.2468 77.674C69.7547 78.8622 69.0487 79.7695 68.129 80.396C67.2092 81.0224 66.108 81.3356 64.8253 81.3356ZM64.8253 78.6584C65.7003 78.6584 66.3988 78.2184 66.9209 77.3384C67.4429 76.4585 67.7014 75.1385 67.6964 73.3786C67.6964 72.2202 67.5771 71.2557 67.3385 70.4851C67.1048 69.7145 66.7717 69.1353 66.3392 68.7475C65.9116 68.3597 65.407 68.1658 64.8253 68.1658C63.9553 68.1658 63.2593 68.6009 62.7373 69.4709C62.2152 70.3409 61.9517 71.6435 61.9468 73.3786C61.9468 74.5518 62.0636 75.5312 62.2973 76.3168C62.5359 77.0973 62.8715 77.6839 63.304 78.0767C63.7366 78.4645 64.2437 78.6584 64.8253 78.6584ZM79.2833 81.3356C78.0007 81.3306 76.897 81.0149 75.9723 80.3885C75.0525 79.7621 74.3441 78.8548 73.8469 77.6665C73.3547 76.4783 73.1111 75.049 73.1161 73.3786C73.1161 71.7131 73.3622 70.2937 73.8544 69.1204C74.3515 67.9471 75.06 67.0547 75.9797 66.4432C76.9044 65.8267 78.0056 65.5185 79.2833 65.5185C80.561 65.5185 81.6598 65.8267 82.5795 66.4432C83.5042 67.0597 84.2152 67.9545 84.7123 69.1278C85.2095 70.2962 85.4556 71.7131 85.4506 73.3786C85.4506 75.054 85.202 76.4858 84.7049 77.674C84.2127 78.8622 83.5067 79.7695 82.587 80.396C81.6672 81.0224 80.566 81.3356 79.2833 81.3356ZM79.2833 78.6584C80.1583 78.6584 80.8568 78.2184 81.3789 77.3384C81.9009 76.4585 82.1594 75.1385 82.1544 73.3786C82.1544 72.2202 82.0351 71.2557 81.7965 70.4851C81.5628 69.7145 81.2297 69.1353 80.7972 68.7475C80.3696 68.3597 79.865 68.1658 79.2833 68.1658C78.4133 68.1658 77.7173 68.6009 77.1953 69.4709C76.6733 70.3409 76.4098 71.6435 76.4048 73.3786C76.4048 74.5518 76.5216 75.5312 76.7553 76.3168C76.9939 77.0973 77.3295 77.6839 77.762 78.0767C78.1946 78.4645 78.7017 78.6584 79.2833 78.6584ZM94.3976 65.7273V81H91.1685V68.7923H91.0791L87.5815 70.9847V68.1211L91.3624 65.7273H94.3976Z" fill="#F1EFED"/>
</g>
<defs>
<filter id="filter0_d_920_4693" x="1" y="5" width="128" height="128" filterUnits="userSpaceOnUse" color-interpolation-filters="sRGB">
<feFlood flood-opacity="0" result="BackgroundImageFix"/>
<feColorMatrix in="SourceAlpha" type="matrix" values="0 0 0 0 0 0 0 0 0 0 0 0 0 0 0 0 0 0 127 0" result="hardAlpha"/>
<feOffset dy="4"/>
<feGaussianBlur stdDeviation="2"/>
<feComposite in2="hardAlpha" operator="out"/>
<feColorMatrix type="matrix" values="0 0 0 0 0.0627451 0 0 0 0 0.117647 0 0 0 0 0.109804 0 0 0 0.05 0"/>
<feBlend mode="normal" in2="BackgroundImageFix" result="effect1_dropShadow_920_4693"/>
<feBlend mode="normal" in="SourceGraphic" in2="effect1_dropShadow_920_4693" result="shape"/>
</filter>
<clipPath id="clip0_920_4693">
<rect width="80" height="80" fill="white" transform="translate(25 25)"/>
</clipPath>
</defs>
</svg>
