<svg xmlns="http://www.w3.org/2000/svg" fill="none" viewBox="0 0 76 76"><path fill="#F0F7E2" d="M37.91 0a37.7 37.7 0 0 0 0 75.4 37.7 37.7 0 0 0 0-75.4Z"/><path stroke="#93C926" stroke-linecap="round" stroke-opacity=".5" stroke-width="2.2" d="M36.98 66.9c.26.11.53.11.8 0 3.07-1.34 22.94-11 22.94-37.43V23.2c0-.52-.35-.98-.86-1.13-2.13-.59-7.7-2.19-11.09-3.48-3.8-1.46-9.18-4.12-10.87-4.96a1.17 1.17 0 0 0-1.05 0c-1.69.84-7.08 3.5-10.87 4.96-3.62 1.38-9 2.91-11.08 3.49-.51.14-.86.6-.86 1.13v6.26c0 26.42 19.86 36.09 22.94 37.43Z"/><path stroke="#93C926" stroke-linecap="round" stroke-linejoin="round" stroke-opacity=".5" stroke-width="2.2" d="m18.43 53.48 18.68-6.98 18.67 6.98"/><path fill="#5D770D" d="M39.17 49.64c13.33 0 25.1 2.21 32.13 5.6a37.7 37.7 0 0 1-66.2 1.03c6.65-3.95 19.41-6.63 34.07-6.63Z"/><path fill="#FCFDFC" d="M41.55 54.04v4.03c.04-.05.11-.09.2-.15.1-.07.3-.16.61-.26.3-.1.64-.16.97-.16.9 0 1.66.3 2.26.93.61.61.92 1.35.92 2.23a3 3 0 0 1-.93 2.24c-.61.62-1.36.92-2.25.92-.88 0-1.6-.29-2.23-.85a3.02 3.02 0 0 1-.94-2.35v-6.58h1.39Zm1.78 4.8c-1 0-1.78.77-1.78 1.82 0 1.06.75 1.83 1.78 1.83s1.78-.78 1.78-1.83c0-1.04-.78-1.82-1.78-1.82ZM33.78 58.43a3.04 3.04 0 0 1 2.25-.93c.88 0 1.61.3 2.23.93.63.63.93 1.36.93 2.23 0 .88-.3 1.63-.93 2.25-.62.61-1.36.92-2.23.92a3.1 3.1 0 0 1-2.25-.92 3.04 3.04 0 0 1-.92-2.25c0-.88.3-1.6.92-2.23Zm.47 2.23c0 .54.17.98.5 1.32.35.34.77.51 1.28.51.5 0 .93-.17 1.26-.5.35-.36.52-.79.52-1.33 0-.53-.17-.97-.52-1.3a1.67 1.67 0 0 0-1.26-.52c-.5 0-.93.17-1.27.52-.34.33-.51.77-.51 1.3ZM48.4 58.43a3.04 3.04 0 0 1 2.24-.93c.89 0 1.61.3 2.24.93.62.63.92 1.36.92 2.23 0 .88-.3 1.63-.92 2.25-.63.61-1.37.92-2.24.92a3.1 3.1 0 0 1-2.24-.92 3.04 3.04 0 0 1-.93-2.25c0-.88.3-1.6.93-2.23Zm.46 2.23c0 .54.17.98.5 1.32.36.34.78.51 1.28.51s.93-.17 1.26-.5c.35-.36.53-.79.53-1.33 0-.53-.18-.97-.53-1.3a1.67 1.67 0 0 0-1.26-.52c-.5 0-.92.17-1.27.52-.33.33-.51.77-.51 1.3ZM23.6 63.26v3.99h-1.4V60.7c0-1 .32-1.78.95-2.35a3.23 3.23 0 0 1 2.23-.85c.86 0 1.64.3 2.25.92.62.63.93 1.37.93 2.24a3.11 3.11 0 0 1-3.18 3.16 3 3 0 0 1-1.58-.42l-.2-.15Zm1.78-4.42c-1.03 0-1.78.78-1.78 1.82 0 1.05.78 1.83 1.78 1.83s1.78-.77 1.78-1.83c0-1.05-.78-1.82-1.78-1.82ZM30.84 63.75h-1.38v-3.68c0-1.78 1-2.5 2.35-2.5h.34v1.34h-.27c-.7 0-1.04.4-1.04 1.16v3.68Z"/><path fill="#141E12" d="M23.51 24.64c-.04-.37-.2-.67-.48-.88-.29-.2-.67-.31-1.16-.31-.33 0-.6.05-.84.14-.23.09-.4.22-.52.38a.91.91 0 0 0-.18.55c0 .17.03.32.1.45.09.13.2.24.34.33.14.1.3.17.49.24.18.07.38.13.59.17l.86.2c.42.1.8.23 1.15.38.35.16.66.35.91.58a2.39 2.39 0 0 1 .82 1.87c0 .59-.16 1.1-.45 1.53-.3.42-.72.76-1.28 1-.55.23-1.22.35-2 .35-.77 0-1.45-.12-2.02-.36a2.96 2.96 0 0 1-1.34-1.05 3.15 3.15 0 0 1-.5-1.74h1.96c.02.32.11.59.28.8.16.22.38.38.66.49.28.1.59.16.94.16.34 0 .64-.05.9-.15.25-.1.45-.24.59-.42a.96.96 0 0 0 .21-.62.8.8 0 0 0-.2-.54 1.46 1.46 0 0 0-.54-.37c-.25-.1-.54-.2-.9-.29l-1.04-.26c-.8-.2-1.44-.5-1.91-.92-.47-.42-.7-.98-.7-1.7 0-.57.15-1.08.46-1.52.32-.43.75-.77 1.3-1.01a4.58 4.58 0 0 1 1.88-.37c.7 0 1.33.12 1.86.37a2.69 2.69 0 0 1 1.7 2.53h-1.94Zm12.26 2.04c0 1.05-.2 1.94-.6 2.67-.39.74-.93 1.3-1.6 1.69-.68.38-1.45.57-2.3.57-.84 0-1.61-.2-2.29-.58a4.14 4.14 0 0 1-1.6-1.68 5.57 5.57 0 0 1-.6-2.67c0-1.04.2-1.93.6-2.67.39-.73.92-1.3 1.6-1.68a4.55 4.55 0 0 1 2.3-.58c.84 0 1.6.2 2.28.58a4.1 4.1 0 0 1 1.62 1.68c.4.74.6 1.63.6 2.67Zm-2.06 0c0-.68-.1-1.25-.3-1.71-.2-.47-.48-.82-.85-1.06-.36-.24-.8-.36-1.28-.36-.5 0-.92.12-1.29.36-.36.24-.65.6-.85 1.06-.2.46-.3 1.03-.3 1.71 0 .68.1 1.25.3 1.72.2.46.49.82.85 1.06.37.24.8.36 1.29.36s.92-.12 1.28-.36c.37-.24.65-.6.85-1.06.2-.47.3-1.04.3-1.72Zm12.03-1.44H43.7c-.04-.26-.11-.5-.23-.7a1.8 1.8 0 0 0-1.07-.88 2.4 2.4 0 0 0-.77-.11c-.5 0-.93.12-1.3.37-.36.24-.65.6-.85 1.07-.2.46-.3 1.03-.3 1.7 0 .68.1 1.25.3 1.72.2.46.5.81.86 1.05a2.53 2.53 0 0 0 2.03.25 1.8 1.8 0 0 0 1.07-.82c.13-.2.21-.43.26-.69l2.05.01a3.72 3.72 0 0 1-1.24 2.37c-.36.31-.78.57-1.27.76-.49.18-1.04.27-1.65.27-.86 0-1.63-.2-2.3-.58a4.12 4.12 0 0 1-1.6-1.68 5.64 5.64 0 0 1-.57-2.67c0-1.04.2-1.93.59-2.67.39-.73.92-1.3 1.6-1.68a4.93 4.93 0 0 1 3.82-.35c.48.16.9.4 1.27.7.37.29.67.65.9 1.08.24.43.39.93.45 1.48Zm4.45 6.24v-1.46l3.42-3.16c.3-.29.54-.54.73-.76.2-.23.35-.45.46-.66.1-.22.15-.46.15-.71 0-.28-.06-.53-.2-.73-.12-.2-.3-.36-.52-.47a1.64 1.64 0 0 0-.75-.17c-.3 0-.55.06-.77.18-.22.12-.39.29-.5.5-.12.23-.18.5-.18.8H50.1a2.85 2.85 0 0 1 1.62-2.7c.52-.26 1.1-.39 1.77-.39.7 0 1.29.12 1.8.37.51.24.9.57 1.2 1a2.82 2.82 0 0 1 .21 2.54c-.15.36-.4.75-.76 1.18-.36.43-.87.94-1.53 1.54L53 29.76v.06h4.03v1.66H50.2ZM17.88 36.06v-.91h4.82v.91h-1.87v5.13h-1.08v-5.13h-1.87Zm5.34-.91h1.23l1.48 2.67H26l1.48-2.67h1.23l-2.2 3.78v2.26h-1.08v-2.26l-2.2-3.78Zm6.26 6.04v-6.04h2.27c.46 0 .85.08 1.16.26.32.17.56.4.72.7.16.31.25.65.25 1.04 0 .38-.09.73-.25 1.03-.16.3-.4.54-.72.7-.32.18-.71.27-1.18.27h-1.5v-.9h1.35c.28 0 .5-.05.67-.15a.9.9 0 0 0 .38-.38c.09-.17.13-.36.13-.57 0-.22-.04-.4-.13-.57a.87.87 0 0 0-.38-.38c-.18-.1-.4-.14-.67-.14h-1v5.13h-1.1Zm5.35 0v-6.04h3.93v.91h-2.84v1.64h2.63v.92h-2.63v1.65h2.86v.92h-3.95Zm8.2-6.04v6.04h-1.1v-6.04h1.1Zm5 6.13c-.41 0-.77-.08-1.06-.23a1.7 1.7 0 0 1-.7-.6 1.6 1.6 0 0 1-.08-1.51c.1-.19.23-.36.41-.52.18-.16.38-.32.61-.47l1.07-.73c.16-.1.28-.21.36-.33a.66.66 0 0 0 .13-.4.53.53 0 0 0-.17-.37.59.59 0 0 0-.45-.17.63.63 0 0 0-.56.32c-.06.1-.08.2-.08.31 0 .13.03.27.1.4.08.14.18.28.3.42l.38.47 2.83 3.32h-1.15l-2.36-2.7-.5-.6c-.17-.2-.3-.4-.4-.62a1.61 1.61 0 0 1 .04-1.47c.13-.23.32-.4.55-.53.24-.13.52-.2.84-.2.32 0 .59.07.82.2a1.3 1.3 0 0 1 .71 1.18c0 .28-.07.53-.21.76-.14.23-.34.43-.6.61l-1.21.9c-.2.14-.35.29-.43.44a.8.8 0 0 0-.13.38c0 .15.04.3.12.43.08.13.2.23.34.31.15.08.32.12.51.12.22 0 .43-.05.64-.15a2.03 2.03 0 0 0 .99-1.07c.1-.25.16-.53.16-.84h.91c0 .38-.04.71-.12 1-.09.28-.2.52-.33.71a2.1 2.1 0 0 1-.56.57 3.2 3.2 0 0 1-.14.1c-.21.19-.46.33-.74.42-.29.1-.56.14-.84.14Zm6.9-6.13v6.04h-1.09v-6.04h1.1Zm2.29 0v6.04h-1.1v-6.04h1.1Z"/></svg>