<svg width="130" height="133" viewBox="0 0 130 133" fill="none" xmlns="http://www.w3.org/2000/svg">
<rect x="2.5" y="2.5" width="125" height="125" rx="62.5" fill="#E6FF03"/>
<rect x="2.5" y="2.5" width="125" height="125" rx="62.5" stroke="#101E1C" stroke-width="5"/>
<g filter="url(#filter0_d_920_4735)">
<rect x="5" y="5" width="120" height="120" rx="60" fill="#101E1C"/>
<rect x="6" y="6" width="118" height="118" rx="59" stroke="#E6FF03" stroke-width="2"/>
<path d="M42.0794 60.1197C42.0197 59.5181 41.7637 59.0508 41.3113 58.7177C40.8588 58.3846 40.2449 58.218 39.4693 58.218C38.9423 58.218 38.4973 58.2926 38.1344 58.4418C37.7715 58.5859 37.4931 58.7873 37.2992 59.0458C37.1103 59.3043 37.0158 59.5977 37.0158 59.9258C37.0059 60.1992 37.063 60.4379 37.1873 60.6417C37.3166 60.8455 37.4931 61.022 37.7168 61.1712C37.9405 61.3153 38.199 61.4421 38.4924 61.5515C38.7857 61.6559 39.0989 61.7454 39.432 61.82L40.8042 62.1481C41.4703 62.2972 42.0819 62.4961 42.6387 62.7447C43.1955 62.9933 43.6777 63.299 44.0854 63.6619C44.4931 64.0249 44.8088 64.4524 45.0325 64.9446C45.2612 65.4368 45.378 66.0011 45.383 66.6374C45.378 67.5721 45.1394 68.3825 44.6671 69.0685C44.1998 69.7496 43.5236 70.2791 42.6387 70.657C41.7587 71.0298 40.6973 71.2163 39.4544 71.2163C38.2214 71.2163 37.1475 71.0273 36.2328 70.6495C35.323 70.2717 34.612 69.7124 34.1 68.9716C33.5929 68.2259 33.3269 67.3036 33.302 66.2049H36.4267C36.4615 66.717 36.6081 67.1445 36.8667 67.4876C37.1301 67.8256 37.4806 68.0817 37.9181 68.2557C38.3606 68.4247 38.8603 68.5092 39.4171 68.5092C39.964 68.5092 40.4387 68.4297 40.8414 68.2706C41.2491 68.1115 41.5648 67.8903 41.7885 67.6069C42.0123 67.3235 42.1241 66.9979 42.1241 66.63C42.1241 66.2869 42.0222 65.9986 41.8184 65.7649C41.6195 65.5312 41.3262 65.3324 40.9384 65.1683C40.5556 65.0043 40.0858 64.8551 39.5289 64.7209L37.8659 64.3033C36.5783 63.9901 35.5616 63.5004 34.8159 62.8342C34.0701 62.168 33.6998 61.2706 33.7047 60.142C33.6998 59.2173 33.9458 58.4094 34.443 57.7184C34.9451 57.0273 35.6337 56.4879 36.5087 56.1001C37.3837 55.7124 38.378 55.5185 39.4917 55.5185C40.6252 55.5185 41.6145 55.7124 42.4597 56.1001C43.3098 56.4879 43.9711 57.0273 44.4434 57.7184C44.9157 58.4094 45.1593 59.2099 45.1742 60.1197H42.0794ZM61.5898 63.3636C61.5898 65.0291 61.2741 66.446 60.6427 67.6143C60.0162 68.7827 59.1611 69.6751 58.0773 70.2915C56.9985 70.9031 55.7854 71.2088 54.4381 71.2088C53.0809 71.2088 51.8628 70.9006 50.784 70.2841C49.7052 69.6676 48.8525 68.7752 48.2261 67.6069C47.5997 66.4386 47.2865 65.0241 47.2865 63.3636C47.2865 61.6982 47.5997 60.2812 48.2261 59.1129C48.8525 57.9446 49.7052 57.0547 50.784 56.4432C51.8628 55.8267 53.0809 55.5185 54.4381 55.5185C55.7854 55.5185 56.9985 55.8267 58.0773 56.4432C59.1611 57.0547 60.0162 57.9446 60.6427 59.1129C61.2741 60.2812 61.5898 61.6982 61.5898 63.3636ZM58.316 63.3636C58.316 62.2848 58.1544 61.375 57.8312 60.6342C57.5131 59.8935 57.0631 59.3317 56.4814 58.9489C55.8998 58.5661 55.2187 58.3746 54.4381 58.3746C53.6576 58.3746 52.9765 58.5661 52.3948 58.9489C51.8131 59.3317 51.3607 59.8935 51.0376 60.6342C50.7194 61.375 50.5603 62.2848 50.5603 63.3636C50.5603 64.4425 50.7194 65.3523 51.0376 66.093C51.3607 66.8338 51.8131 67.3956 52.3948 67.7784C52.9765 68.1612 53.6576 68.3526 54.4381 68.3526C55.2187 68.3526 55.8998 68.1612 56.4814 67.7784C57.0631 67.3956 57.5131 66.8338 57.8312 66.093C58.1544 65.3523 58.316 64.4425 58.316 63.3636ZM77.4572 61.0742H74.1909C74.1312 60.6516 74.0094 60.2763 73.8255 59.9482C73.6415 59.6151 73.4054 59.3317 73.117 59.098C72.8287 58.8643 72.4956 58.6854 72.1177 58.5611C71.7449 58.4368 71.3397 58.3746 70.9022 58.3746C70.1117 58.3746 69.4231 58.571 68.8365 58.9638C68.2498 59.3516 67.7949 59.9183 67.4718 60.6641C67.1486 61.4048 66.987 62.3047 66.987 63.3636C66.987 64.4524 67.1486 65.3672 67.4718 66.108C67.7999 66.8487 68.2573 67.408 68.8439 67.7859C69.4306 68.1637 70.1092 68.3526 70.8798 68.3526C71.3123 68.3526 71.7125 68.2955 72.0804 68.1811C72.4533 68.0668 72.7839 67.9002 73.0723 67.6815C73.3606 67.4577 73.5993 67.1868 73.7882 66.8686C73.9821 66.5504 74.1163 66.1875 74.1909 65.7798L77.4572 65.7947C77.3727 66.4957 77.1614 67.1719 76.8233 67.8232C76.4902 68.4695 76.0403 69.0487 75.4735 69.5607C74.9118 70.0678 74.2406 70.4705 73.4601 70.7688C72.6845 71.0621 71.807 71.2088 70.8276 71.2088C69.4654 71.2088 68.2473 70.9006 67.1735 70.2841C66.1046 69.6676 65.2594 68.7752 64.638 67.6069C64.0215 66.4386 63.7132 65.0241 63.7132 63.3636C63.7132 61.6982 64.0265 60.2812 64.6529 59.1129C65.2793 57.9446 66.1294 57.0547 67.2033 56.4432C68.2772 55.8267 69.4853 55.5185 70.8276 55.5185C71.7125 55.5185 72.5328 55.6428 73.2885 55.8913C74.0492 56.1399 74.7228 56.5028 75.3095 56.9801C75.8961 57.4524 76.3734 58.0316 76.7413 58.7177C77.1142 59.4038 77.3528 60.1893 77.4572 61.0742ZM84.5436 71V68.6733L89.98 63.6396C90.4424 63.1921 90.8302 62.7894 91.1434 62.4315C91.4616 62.0735 91.7027 61.723 91.8667 61.38C92.0308 61.032 92.1128 60.6566 92.1128 60.2539C92.1128 59.8065 92.0109 59.4212 91.8071 59.098C91.6032 58.7699 91.3248 58.5188 90.9719 58.3448C90.6189 58.1658 90.2187 58.0763 89.7712 58.0763C89.3039 58.0763 88.8962 58.1708 88.5482 58.3597C88.2002 58.5487 87.9317 58.8196 87.7428 59.1726C87.5539 59.5256 87.4594 59.9457 87.4594 60.4329H84.3944C84.3944 59.4336 84.6206 58.5661 85.0731 57.8303C85.5255 57.0945 86.1594 56.5252 86.9747 56.1225C87.79 55.7198 88.7297 55.5185 89.7936 55.5185C90.8873 55.5185 91.8394 55.7124 92.6498 56.1001C93.4651 56.483 94.099 57.0149 94.5514 57.696C95.0038 58.3771 95.23 59.1577 95.23 60.0376C95.23 60.6143 95.1157 61.1836 94.887 61.7454C94.6633 62.3072 94.2631 62.9311 93.6863 63.6172C93.1096 64.2983 92.2968 65.1161 91.2478 66.0707L89.018 68.2557V68.3601H95.4314V71H84.5436Z" fill="#F1EFED"/>
</g>
<defs>
<filter id="filter0_d_920_4735" x="1" y="5" width="128" height="128" filterUnits="userSpaceOnUse" color-interpolation-filters="sRGB">
<feFlood flood-opacity="0" result="BackgroundImageFix"/>
<feColorMatrix in="SourceAlpha" type="matrix" values="0 0 0 0 0 0 0 0 0 0 0 0 0 0 0 0 0 0 127 0" result="hardAlpha"/>
<feOffset dy="4"/>
<feGaussianBlur stdDeviation="2"/>
<feComposite in2="hardAlpha" operator="out"/>
<feColorMatrix type="matrix" values="0 0 0 0 0.0627451 0 0 0 0 0.117647 0 0 0 0 0.109804 0 0 0 0.05 0"/>
<feBlend mode="normal" in2="BackgroundImageFix" result="effect1_dropShadow_920_4735"/>
<feBlend mode="normal" in="SourceGraphic" in2="effect1_dropShadow_920_4735" result="shape"/>
</filter>
</defs>
</svg>
